<svg xmlns="http://www.w3.org/2000/svg" width="81" height="120"><defs><linearGradient id="a" x1="100.1%" x2="44.158%" y1="-16.123%" y2="77.651%"><stop offset="13.45%" stop-color="#2B415B"/><stop offset="37.62%" stop-color="#3B5676"/><stop offset="69.23%" stop-color="#54769E"/><stop offset="79.01%" stop-color="#52749B"/><stop offset="86.14%" stop-color="#4D6C92"/><stop offset="92.44%" stop-color="#436082"/><stop offset="98.22%" stop-color="#364F6C"/><stop offset="100%" stop-color="#314863"/></linearGradient><linearGradient id="b" x1="99.789%" x2="-4.607%" y1="61.494%" y2="13.346%"><stop offset="0%" stop-color="#54769E"/><stop offset="48.02%" stop-color="#53749C"/><stop offset="68.78%" stop-color="#4F6F95"/><stop offset="84.23%" stop-color="#486588"/><stop offset="90.95%" stop-color="#435F80"/></linearGradient><linearGradient id="c" x1="725.857%" x2="-347.124%" y1="50.023%" y2="50.023%"><stop offset="25.39%" stop-color="#20344C"/><stop offset="40.72%" stop-color="#273D57"/><stop offset="67.33%" stop-color="#395373"/><stop offset="100%" stop-color="#54769E"/></linearGradient><linearGradient id="d" x1="-653.788%" x2="455.494%" y1="50.021%" y2="50.021%"><stop offset="25.39%" stop-color="#54769E"/><stop offset="41.33%" stop-color="#4D6E93"/><stop offset="68.97%" stop-color="#3C5777"/><stop offset="100%" stop-color="#233850"/></linearGradient><linearGradient id="e" x1="50.037%" x2="49.958%" y1="-209.336%" y2="235.965%"><stop offset=".655%" stop-color="#54769E"/><stop offset="19.93%" stop-color="#507198"/><stop offset="45.02%" stop-color="#466488"/><stop offset="73.18%" stop-color="#354F6D"/><stop offset="100%" stop-color="#21354D"/></linearGradient><linearGradient id="f" x1="163.86%" x2="-53.14%" y1="-95.577%" y2="173.049%"><stop offset="25.39%" stop-color="#54769E"/><stop offset="41.02%" stop-color="#4D6E93"/><stop offset="68.13%" stop-color="#3C5777"/><stop offset="100%" stop-color="#22364E"/></linearGradient><linearGradient id="g" x1="-44.112%" x2="137.688%" y1="-60.146%" y2="146.957%"><stop offset="25.39%" stop-color="#54769E"/><stop offset="41.02%" stop-color="#4D6E93"/><stop offset="68.13%" stop-color="#3C5777"/><stop offset="100%" stop-color="#22364E"/></linearGradient><linearGradient id="h" x1="-1.436%" x2="127.702%" y1="31.601%" y2="103.798%"><stop offset="26.64%" stop-color="#54769E"/><stop offset="100%" stop-color="#425E7F"/></linearGradient><linearGradient id="i" x1="-71.276%" x2="149.175%" y1="-65.314%" y2="96.331%"><stop offset="46.09%" stop-color="#54769E" stop-opacity="0"/><stop offset="56.99%" stop-color="#52739A" stop-opacity=".216"/><stop offset="67.64%" stop-color="#4A698E" stop-opacity=".427"/><stop offset="78.2%" stop-color="#3D597B" stop-opacity=".636"/><stop offset="88.63%" stop-color="#2C435F" stop-opacity=".842"/><stop offset="96.61%" stop-color="#1B2E45"/></linearGradient><linearGradient id="j" x1="50.309%" x2="50.309%" y1="295.997%" y2="-124.649%"><stop offset="25.39%" stop-color="#54769E"/><stop offset="41.02%" stop-color="#4D6E93"/><stop offset="68.13%" stop-color="#3C5777"/><stop offset="100%" stop-color="#22364E"/></linearGradient></defs><g fill="none"><path fill="#273C51" d="M75.905 29.011L81 .035 59.705 8.889H36.3L15.005 0l5.13 29.011-4.814 16.168 4.534 2.835L0 65.372V81.68l22.701 31.146 21.401 7.139.035.035 16.727-8.539.035-.035V98.793l-9.488-5.18 14.9-39.51h-.105l14.478-8.924z"/><path fill="url(#a)" d="M34.258 35.337L0 65.233l47.723 27.314.176-56.303z"/><path fill="#466284" d="M29.384 53.826l18.374 48.872.14-46.151z"/><path fill="#354D6A" d="M66.168 54l-18.41 48.698.14-46.151z"/><path fill="url(#b)" d="M80.825.105l-18.27 9.558-14.621 3.174L33.17 9.663 14.973.07l6.276 28.849-5.96 16.186 20.898 12.907L47.794 70.57v.104l.07-.07.07.07v-.104L59.54 58.012l20.97-12.907-5.962-16.152z"/><path fill="url(#c)" d="M80.825.105L75.74 28.988l4.77 16.117-5.962-16.152z"/><path fill="url(#d)" d="M14.973.07l5.12 28.918-4.805 16.117 5.961-16.186z"/><path fill="url(#e)" d="M14.973.07l21.25 8.86h23.352L80.825.105l-18.27 9.558-14.621 3.174L33.17 9.663z"/><path fill="url(#f)" d="M21.25 28.919l-1.053 2.895 22.056-20.233z"/><path fill="url(#g)" d="M74.548 28.953L53.65 11.581l21.916 20.093z"/><path fill="url(#h)" d="M0 65.233l51.3 28.15 6.487 16.152-13.745 5.198-21.39-2.198L0 81.488z"/><path fill="#FFF" d="M42.464 88.535l-19.742 23.93-.07.07 21.354 7.116.036.035 16.69-8.512.036-.034V98.547z"/><path fill="url(#i)" d="M74.548 28.953L80.825.105l-18.27 9.558-8.906 1.918z"/><path fill="#FFF" d="M47.899 70.674l-5.786-6.314 5.786-6.348 5.82 6.348z"/><path fill="url(#j)" d="M47.338 12.698l.596.14.526-.105-.561 36.802z"/></g></svg>