<svg xmlns="http://www.w3.org/2000/svg" width="1202" height="344"><defs><linearGradient id="a" x1="100.1%" x2="44.158%" y1="-45.31%" y2="89.857%"><stop offset="13.45%" stop-color="#2B415B"/><stop offset="37.62%" stop-color="#3B5676"/><stop offset="69.23%" stop-color="#54769E"/><stop offset="79.01%" stop-color="#52749B"/><stop offset="86.14%" stop-color="#4D6C92"/><stop offset="92.44%" stop-color="#436082"/><stop offset="98.22%" stop-color="#364F6C"/><stop offset="100%" stop-color="#314863"/></linearGradient><linearGradient id="b" x1="99.789%" x2="-4.607%" y1="63.351%" y2="7.425%"><stop offset="0%" stop-color="#54769E"/><stop offset="48.02%" stop-color="#53749C"/><stop offset="68.78%" stop-color="#4F6F95"/><stop offset="84.23%" stop-color="#486588"/><stop offset="90.95%" stop-color="#435F80"/></linearGradient><linearGradient id="c" x1="725.857%" x2="-347.124%" y1="50.023%" y2="50.023%"><stop offset="25.39%" stop-color="#20344C"/><stop offset="40.72%" stop-color="#273D57"/><stop offset="67.33%" stop-color="#395373"/><stop offset="100%" stop-color="#54769E"/></linearGradient><linearGradient id="d" x1="-653.788%" x2="455.494%" y1="50.021%" y2="50.021%"><stop offset="25.39%" stop-color="#54769E"/><stop offset="41.33%" stop-color="#4D6E93"/><stop offset="68.97%" stop-color="#3C5777"/><stop offset="100%" stop-color="#233850"/></linearGradient><linearGradient id="e" x1="50.974%" x2="48.883%" y1="-209.336%" y2="235.965%"><stop offset=".655%" stop-color="#54769E"/><stop offset="19.93%" stop-color="#507198"/><stop offset="45.02%" stop-color="#466488"/><stop offset="73.18%" stop-color="#354F6D"/><stop offset="100%" stop-color="#21354D"/></linearGradient><linearGradient id="f" x1="183.911%" x2="-71.303%" y1="-95.577%" y2="173.049%"><stop offset="25.39%" stop-color="#54769E"/><stop offset="41.02%" stop-color="#4D6E93"/><stop offset="68.13%" stop-color="#3C5777"/><stop offset="100%" stop-color="#22364E"/></linearGradient><linearGradient id="g" x1="-60.805%" x2="153.241%" y1="-60.146%" y2="146.957%"><stop offset="25.39%" stop-color="#54769E"/><stop offset="41.02%" stop-color="#4D6E93"/><stop offset="68.13%" stop-color="#3C5777"/><stop offset="100%" stop-color="#22364E"/></linearGradient><linearGradient id="h" x1="-19.377%" x2="154.805%" y1="31.601%" y2="103.798%"><stop offset="26.64%" stop-color="#54769E"/><stop offset="100%" stop-color="#425E7F"/></linearGradient><linearGradient id="i" x1="-71.276%" x2="149.175%" y1="-81.307%" y2="102.757%"><stop offset="46.09%" stop-color="#54769E" stop-opacity="0"/><stop offset="56.99%" stop-color="#52739A" stop-opacity=".216"/><stop offset="67.64%" stop-color="#4A698E" stop-opacity=".427"/><stop offset="78.2%" stop-color="#3D597B" stop-opacity=".636"/><stop offset="88.63%" stop-color="#2C435F" stop-opacity=".842"/><stop offset="96.61%" stop-color="#1B2E45"/></linearGradient><linearGradient id="j" x1="50.309%" x2="50.309%" y1="295.997%" y2="-124.649%"><stop offset="25.39%" stop-color="#54769E"/><stop offset="41.02%" stop-color="#4D6E93"/><stop offset="68.13%" stop-color="#3C5777"/><stop offset="100%" stop-color="#22364E"/></linearGradient></defs><g fill="none"><path fill="#FFF" d="M308.988 108.885c-17.671 0-36.62 6.957-36.62 23.886 0 15.074 17.321 19.48 37.898 22.842 27.902 4.407 55.338 9.972 55.338 41.279-.233 31.19-30.11 41.279-56.733 41.279-24.646 0-48.245-8.929-58.941-32.235l14.3-8.348c8.951 16.465 27.668 24.465 44.874 24.465 16.973 0 39.41-5.333 39.41-25.857.233-17.276-19.298-22.262-40.224-25.393-26.855-4.174-53.012-10.32-53.012-38.496-.349-28.987 29.296-38.96 53.36-38.96 20.694 0 40.458 4.175 52.78 25.278l-13.136 8.117c-7.557-12.06-23.716-17.625-39.294-17.857zm85.098-12.291v57.048c8.37-12.87 21.508-17.276 34.063-17.508 27.669 0 41.27 18.32 41.27 45.337v54.033H453.26v-53.802c0-19.247-9.998-30.147-27.9-30.147-17.904 0-31.041 13.914-31.041 31.887v52.062h-16.276V96.363h16.16v.231h-.117zm175.081 139.258l-.35-17.857c-7.788 13.566-22.669 19.828-36.27 19.828-28.25 0-50.34-19.48-50.34-51.483 0-31.77 22.554-50.902 50.572-50.67 14.764 0 29.296 6.725 36.504 19.48l.232-17.857h15.927v98.095h-15.694l-.581.464zm-35.923-84.645c-19.531 0-35.225 13.914-35.225 35.713s15.694 35.945 35.225 35.945c47.432 0 47.432-71.89.232-71.89l-.232.232zm65.103-13.45h15.578l.814 18.9c7.789-13.102 22.32-20.64 37.899-20.64 28.25.58 48.943 20.408 48.943 50.671 0 30.96-20.46 51.019-49.99 51.019-13.95 0-29.528-5.914-37.201-19.828v64.005h-15.927V137.757h-.116zm86.842 49.163c0-22.03-14.532-35.133-34.644-35.133-20.46 0-34.411 15.074-34.411 35.133 0 20.06 14.532 35.133 34.411 35.365 19.647 0 34.644-13.218 34.644-35.365zm121.719 32.814c-9.998 11.711-27.087 17.509-42.433 17.509-30.459 0-51.733-20.06-51.733-51.25 0-29.568 21.274-50.903 51.036-50.903 30.11 0 53.012 18.436 49.176 57.628H729.25c1.744 18.088 16.74 29.451 35.69 29.451 11.16 0 24.646-4.406 31.273-12.29l10.928 9.971h-.233v-.116zm-9.649-40.467c-.814-19.015-13.95-29.451-33.249-29.451-17.09 0-32.086 10.32-34.876 29.22h68.125v.231zm82.189-70.392c-17.649 0-36.574 6.952-36.574 23.87 0 15.063 17.3 19.466 37.851 22.826 27.866 4.404 55.268 9.966 55.268 41.251-.232 31.17-30.072 41.251-56.661 41.251-24.615 0-48.185-8.922-58.868-32.213l14.282-8.343c8.94 16.454 27.634 24.45 44.818 24.45 16.952 0 39.361-5.33 39.361-25.84.232-17.265-19.274-22.248-40.174-25.376-26.82-4.172-52.946-10.313-52.946-38.47-.348-28.968 29.26-38.933 53.295-38.933 20.667 0 40.406 4.171 52.713 25.26l-13.12 8.111c-7.547-12.05-23.686-17.613-39.245-17.844zm84.992-12.283v57.01c8.36-12.862 21.48-17.265 34.02-17.497 27.634 0 41.219 18.308 41.219 45.306v53.997h-16.14v-53.765c0-19.235-9.985-30.127-27.865-30.127-17.881 0-31.002 14.136-31.002 31.98v52.028h-16.255V96.36h16.14v.232h-.117zm88.476 138.7h16.255v-96.638h-16.255v96.638zm8.36-111.354l-12.889-14.136 12.888-14.137 12.889 14.137-12.889 14.136zm38.315 111.586v-.232h-.116zm16.139-104.749c0-14.716 6.735-21.205 17.301-21.205h.58l3.716-14.02a31.33 31.33 0 0 0-4.644-.348c-20.668 0-32.975 13.093-32.975 35.573v7.763h-19.275v14.252h19.275v82.618h16.139V152.79h19.506v-14.252h-19.506v-7.763h-.116zm82.903 90.96a21.421 21.421 0 0 1-3.832.348c-11.727 0-15.558-7.3-15.558-18.888v-50.52h20.9v-14.137h-20.784v-29.895l-16.256 1.738v28.041h-19.738v14.137h19.738v50.52c0 21.669 9.986 33.951 31.002 33.604 2.554-.116 5.108-.348 7.547-.927l-3.02-14.021z"/><path fill="#273C51" d="M216 83.1L230.5.3l-60.6 25.3h-66.6L42.7.2l14.6 82.9-13.7 46.2 12.9 8.1L0 187v46.6l64.6 89 60.9 20.4.1.1 47.6-24.4.1-.1v-36.1l-27-14.8 42.4-112.9h-.3l41.2-25.5z"/><path fill="url(#a)" d="M97.7 101.3L0 187l136.1 78.3.5-161.4z"/><path fill="#466284" d="M83.8 154.3l52.4 140.1.4-132.3z"/><path fill="#354D6A" d="M188.7 154.8l-52.5 139.6.4-132.3z"/><path fill="url(#b)" d="M230.5.3l-52.1 27.4-41.7 9.1-42.1-9.1L42.7.2l17.9 82.7-17 46.4 59.6 37 33.1 36v.3l.2-.2.2.2v-.3l33.1-36 59.8-37-17-46.3z"/><path fill="url(#c)" d="M230.5.3L216 83.1l13.6 46.2-17-46.3z"/><path fill="url(#d)" d="M42.7.2l14.6 82.9-13.7 46.2 17-46.4z"/><path fill="url(#e)" d="M42.7.2l60.6 25.4h66.6L230.5.3l-52.1 27.4-41.7 9.1-42.1-9.1z"/><path fill="url(#f)" d="M60.6 82.9l-3 8.3 62.9-58z"/><path fill="url(#g)" d="M212.6 83L153 33.2l62.5 57.6z"/><path fill="url(#h)" d="M0 187l146.3 80.7 18.5 46.3-39.2 14.9-61-6.3-64.6-89z"/><path fill="#FFF" d="M121.1 253.8l-56.3 68.6-.2.2 60.9 20.4.1.1 47.6-24.4.1-.1v-36.1z"/><path fill="url(#i)" d="M212.6 83L230.5.3l-52.1 27.4-25.4 5.5z"/><path fill="#FFF" d="M136.6 202.6l-16.5-18.1 16.5-18.2 16.6 18.2z"/><path fill="url(#j)" d="M135 36.4l1.7.4 1.5-.3-1.6 105.5z"/></g></svg>