<svg xmlns="http://www.w3.org/2000/svg" xmlns:xlink="http://www.w3.org/1999/xlink" id="Layer_1" data-name="Layer 1" viewBox="0 0 400 132.95"><defs><style>.cls-1{fill:#354e6b}.cls-13{fill:#fff}</style><linearGradient id="linear-gradient" x2="66.12" y1="102.53" y2="102.53" gradientUnits="userSpaceOnUse"><stop offset=".27" stop-color="#55769d"/><stop offset="1" stop-color="#435f80"/></linearGradient><linearGradient id="linear-gradient-2" x1="52.18" x2="23.04" y1="10.2" y2="94.73" gradientUnits="userSpaceOnUse"><stop offset=".13" stop-color="#2c415b"/><stop offset=".38" stop-color="#3c5676"/><stop offset=".69" stop-color="#55769d"/><stop offset=".79" stop-color="#53749a"/><stop offset=".86" stop-color="#4d6c91"/><stop offset=".93" stop-color="#436081"/><stop offset=".98" stop-color="#364f6b"/><stop offset="1" stop-color="#314963"/></linearGradient><linearGradient id="linear-gradient-3" x1="87.78" x2="13.02" y1="48.88" y2="5.72" gradientUnits="userSpaceOnUse"><stop offset="0" stop-color="#55769d"/><stop offset=".48" stop-color="#54749b"/><stop offset=".69" stop-color="#506f94"/><stop offset=".85" stop-color="#486587"/><stop offset=".91" stop-color="#445f80"/></linearGradient><linearGradient id="linear-gradient-4" x1="130.65" x2="57.41" y1="24.63" y2="24.63" gradientUnits="userSpaceOnUse"><stop offset=".25" stop-color="#20344c"/><stop offset=".41" stop-color="#273d57"/><stop offset=".68" stop-color="#395473"/><stop offset="1" stop-color="#55769d"/></linearGradient><linearGradient id="linear-gradient-5" x1="-28.31" x2="47.41" y1="24.61" y2="24.61" gradientUnits="userSpaceOnUse"><stop offset=".25" stop-color="#55769d"/><stop offset=".41" stop-color="#4e6d92"/><stop offset=".69" stop-color="#3c5776"/><stop offset="1" stop-color="#233850"/></linearGradient><linearGradient id="linear-gradient-6" x1="52.82" x2="51.33" y1="-29.23" y2="32.92" gradientUnits="userSpaceOnUse"><stop offset=".01" stop-color="#55769d"/><stop offset=".2" stop-color="#517197"/><stop offset=".45" stop-color="#476487"/><stop offset=".74" stop-color="#354e6c"/><stop offset="1" stop-color="#21354d"/></linearGradient><linearGradient id="linear-gradient-7" x1="66.11" x2="4.9" y1="-8.57" y2="50.84" gradientUnits="userSpaceOnUse"><stop offset=".25" stop-color="#55769d"/><stop offset=".41" stop-color="#4e6d92"/><stop offset=".69" stop-color="#3c5676"/><stop offset="1" stop-color="#22364e"/></linearGradient><linearGradient id="linear-gradient-8" x1="43.89" x2="94.9" y1="-.64" y2="44.85" xlink:href="#linear-gradient-7"/><linearGradient id="linear-gradient-9" x1="-12.14" x2="97.32" y1="88.32" y2="127.38" xlink:href="#linear-gradient"/><linearGradient id="linear-gradient-10" x1="37.32" x2="102.47" y1="-25.62" y2="32.43" gradientUnits="userSpaceOnUse"><stop offset=".46" stop-color="#55769d" stop-opacity="0"/><stop offset=".58" stop-color="#527298" stop-opacity=".06"/><stop offset=".71" stop-color="#486689" stop-opacity=".23"/><stop offset=".82" stop-color="#385170" stop-opacity=".51"/><stop offset=".94" stop-color="#21354d" stop-opacity=".91"/><stop offset=".97" stop-color="#1c2e45"/></linearGradient><linearGradient id="linear-gradient-11" x1="52.13" x2="52.13" y1="132.98" y2="-36.4" xlink:href="#linear-gradient-7"/></defs><path d="M107.06 76.06c-5.81 0-12 2.29-12 7.84 0 5 5.68 6.4 12.41 7.51 9.15 1.44 18.16 3.27 18.16 13.59s-9.88 13.6-18.63 13.6c-8.1 0-15.81-2.94-19.34-10.58l4.7-2.74c2.94 5.42 9.08 8 14.7 8s12.94-1.74 12.94-8.47c.07-5.68-6.34-7.32-13.2-8.36-8.8-1.37-17.38-3.4-17.38-12.68C89.29 74.23 99 71 106.93 71c6.8 0 13.26 1.37 17.31 8.3l-4.31 2.68c-2.49-3.98-7.78-5.85-12.87-5.92zM134.94 72v18.76c2.74-4.25 7.06-5.68 11.17-5.75 9.08 0 13.52 6 13.52 14.9v17.77h-5.29V100c0-6.34-3.27-9.93-9.15-9.93A10.16 10.16 0 0 0 135 100.56v17.12h-5.36V71.95h5.29zm57.42 45.81l-.13-5.88a13.66 13.66 0 0 1-11.89 6.53c-9.28 0-16.53-6.4-16.53-16.92s7.38-16.73 16.59-16.66c4.83 0 9.6 2.22 12 6.4l.07-5.88h5.23v32.27h-5.16zM180.6 90c-6.4 0-11.6 4.55-11.6 11.74s5.16 11.83 11.56 11.83c15.55 0 15.55-23.65.07-23.65zm21.34-4.46H207l.26 6.21a14.27 14.27 0 0 1 12.41-6.79c9.28.2 16.07 6.73 16.07 16.66 0 10.19-6.73 16.79-16.4 16.79-4.57 0-9.67-2-12.22-6.53v21h-5.23zm28.49 16.2c0-7.25-4.77-11.56-11.37-11.56s-11.3 5-11.3 11.56a11.22 11.22 0 0 0 11.3 11.63c6.46 0 11.36-4.37 11.36-11.63zm39.92 10.78c-3.27 3.85-8.89 5.75-13.92 5.75-10 0-17-6.6-17-16.86 0-9.73 7-16.73 16.73-16.73s17.38 6.08 16.14 18.95h-27.43c.59 5.95 5.49 9.67 11.69 9.67 3.66 0 8.1-1.44 10.26-4.05l3.59 3.27zm-3.14-13.33c-.26-6.27-4.57-9.67-10.91-9.67-5.62 0-10.52 3.4-11.43 9.6h22.34z" class="cls-1"/><path fill="#55769d" d="M294.13 76.06c-5.81 0-12 2.29-12 7.84 0 5 5.68 6.4 12.41 7.51 9.15 1.44 18.16 3.27 18.16 13.59s-9.87 13.59-18.62 13.59c-8.1 0-15.81-2.94-19.34-10.58l4.7-2.74c2.94 5.42 9.08 8 14.7 8s12.94-1.76 12.94-8.49c.07-5.68-6.34-7.32-13.2-8.36-8.82-1.37-17.38-3.4-17.38-12.67C276.36 74.23 286.09 71 294 71c6.8 0 13.26 1.37 17.31 8.3L307 81.94c-2.48-3.94-7.77-5.81-12.87-5.88zM322 72v18.76c2.74-4.25 7.06-5.68 11.17-5.75 9.08 0 13.52 6 13.52 14.9v17.77h-5.29V100c0-6.34-3.27-9.93-9.15-9.93a10.16 10.16 0 0 0-10.19 10.52v17.12h-5.36V71.95h5.3zm29.07 45.68h5.36V85.86h-5.36zM353.82 81l-4.24-4.64 4.24-4.64 4.24 4.64zm12.61 36.75v-.07h-.06l.06.07zm5.29-34.5c0-4.83 2.22-7 5.68-7h.2l1.21-4.6a12 12 0 0 0-1.54-.11c-6.79 0-10.85 4.31-10.85 11.69v2.57h-6.32v4.7h6.34v27.18h5.29V90.5h6.41v-4.7h-6.41zm27.22 29.95a8 8 0 0 1-1.24.11c-3.85 0-5.1-2.42-5.1-6.21V90.46h6.88v-4.64h-6.81V76l-5.36.59v9.23h-6.47v4.64h6.47v16.64c0 7.12 3.27 11.17 10.19 11a14.34 14.34 0 0 0 2.49-.3z"/><path fill="url(#linear-gradient)" d="M.02 72.12L0 89l23.14 36.08 24.82 7.87 18.16-11.53-66.1-49.3z"/><path fill="url(#linear-gradient-2)" d="M37.28 38.53L.05 71.21l51.89 29.87.19-61.57-14.85-.98z"/><path fill="#466284" d="M31.98 58.74l20.01 53.43.14-50.45-20.15-2.98z"/><path d="M72 58.93l-20.01 53.24.14-50.45L72 58.93z" class="cls-1"/><path fill="url(#linear-gradient-3)" d="M87.92.03L68.06 10.46l-15.9 3.49-16.04-3.49L16.32 0l6.82 31.52-6.49 17.7 22.73 14.11 12.65 13.71v.13l.06-.07.06.07v-.13L64.8 63.33l22.78-14.1-6.47-17.68L87.92.03z"/><path fill="url(#linear-gradient-4)" d="M87.92.03L82.4 31.61l5.18 17.62-6.47-17.68L87.92.03z"/><path fill="url(#linear-gradient-5)" d="M16.32 0l5.55 31.59-5.22 17.63 6.49-17.7L16.32 0z"/><path fill="url(#linear-gradient-6)" d="M16.32 0l23.12 9.66h25.37L87.92.03 68.06 10.46l-15.9 3.49-16.04-3.49L16.32 0z"/><path fill="url(#linear-gradient-7)" d="M23.14 31.52l-1.15 3.15 23.99-22.08-22.84 18.93z"/><path fill="url(#linear-gradient-8)" d="M81.11 31.55L58.38 12.59l23.83 21.94-1.1-2.98z"/><path fill="url(#linear-gradient-9)" d="M.05 71.21l55.77 30.77 7.06 17.65-14.94 5.71-23.26-2.42L.04 89l.01-17.79z"/><path d="M46.2 96.71l-21.46 26.13-.06.08 23.23 7.8.03.01 18.14-9.29.04-.02v-13.79L46.2 96.71z" class="cls-13"/><path fill="url(#linear-gradient-10)" d="M81.11 31.55L87.92.03 68.06 10.46l-9.68 2.13 22.73 18.96z"/><path d="M52.13 77.17l-6.31-6.92 6.31-6.91 6.32 6.91-6.32 6.92z" class="cls-13"/><path fill="url(#linear-gradient-11)" d="M51.52 13.8l.64.15.58-.13-.62 40.24-.6-40.26z"/></svg>